<svg width="292" height="64" viewBox="0 0 292 64" fill="none" xmlns="http://www.w3.org/2000/svg">
<path d="M11.04 19.304V39.464C11.04 41.48 11.536 43.032 12.528 44.12C13.52 45.208 14.976 45.752 16.896 45.752C18.816 45.752 20.288 45.208 21.312 44.12C22.336 43.032 22.848 41.48 22.848 39.464V19.304H31.056V39.416C31.056 42.424 30.416 44.968 29.136 47.048C27.856 49.128 26.128 50.696 23.952 51.752C21.808 52.808 19.408 53.336 16.752 53.336C14.096 53.336 11.712 52.824 9.6 51.8C7.52 50.744 5.872 49.176 4.656 47.096C3.44 44.984 2.832 42.424 2.832 39.416V19.304H11.04ZM49.0118 53.336C46.5478 53.336 44.3398 52.936 42.3878 52.136C40.4358 51.336 38.8678 50.152 37.6838 48.584C36.5318 47.016 35.9238 45.128 35.8598 42.92H44.5958C44.7238 44.168 45.1558 45.128 45.8918 45.8C46.6278 46.44 47.5878 46.76 48.7718 46.76C49.9878 46.76 50.9478 46.488 51.6518 45.944C52.3558 45.368 52.7078 44.584 52.7078 43.592C52.7078 42.76 52.4198 42.072 51.8438 41.528C51.2998 40.984 50.6118 40.536 49.7798 40.184C48.9798 39.832 47.8278 39.432 46.3238 38.984C44.1478 38.312 42.3718 37.64 40.9958 36.968C39.6198 36.296 38.4358 35.304 37.4438 33.992C36.4518 32.68 35.9558 30.968 35.9558 28.856C35.9558 25.72 37.0918 23.272 39.3638 21.512C41.6358 19.72 44.5958 18.824 48.2438 18.824C51.9558 18.824 54.9478 19.72 57.2198 21.512C59.4918 23.272 60.7078 25.736 60.8678 28.904H51.9878C51.9238 27.816 51.5238 26.968 50.7878 26.36C50.0518 25.72 49.1078 25.4 47.9557 25.4C46.9638 25.4 46.1638 25.672 45.5558 26.216C44.9478 26.728 44.6438 27.48 44.6438 28.472C44.6438 29.56 45.1558 30.408 46.1797 31.016C47.2038 31.624 48.8038 32.28 50.9798 32.984C53.1558 33.72 54.9158 34.424 56.2598 35.096C57.6358 35.768 58.8198 36.744 59.8118 38.024C60.8038 39.304 61.2998 40.952 61.2998 42.968C61.2998 44.888 60.8038 46.632 59.8118 48.2C58.8518 49.768 57.4438 51.016 55.5878 51.944C53.7318 52.872 51.5398 53.336 49.0118 53.336ZM74.559 25.88V32.696H85.551V39.032H74.559V46.424H86.991V53H66.351V19.304H86.991V25.88H74.559ZM109.504 53L102.496 40.28H100.528V53H92.3198V19.304H106.096C108.752 19.304 111.008 19.768 112.864 20.696C114.752 21.624 116.16 22.904 117.088 24.536C118.016 26.136 118.48 27.928 118.48 29.912C118.48 32.152 117.84 34.152 116.56 35.912C115.312 37.672 113.456 38.92 110.992 39.656L118.768 53H109.504ZM100.528 34.472H105.616C107.12 34.472 108.24 34.104 108.976 33.368C109.744 32.632 110.128 31.592 110.128 30.248C110.128 28.968 109.744 27.96 108.976 27.224C108.24 26.488 107.12 26.12 105.616 26.12H100.528V34.472ZM135.824 53.336C133.36 53.336 131.152 52.936 129.2 52.136C127.248 51.336 125.68 50.152 124.496 48.584C123.344 47.016 122.736 45.128 122.672 42.92H131.408C131.536 44.168 131.968 45.128 132.704 45.8C133.44 46.44 134.4 46.76 135.584 46.76C136.8 46.76 137.76 46.488 138.464 45.944C139.168 45.368 139.52 44.584 139.52 43.592C139.52 42.76 139.232 42.072 138.656 41.528C138.112 40.984 137.424 40.536 136.592 40.184C135.792 39.832 134.64 39.432 133.136 38.984C130.96 38.312 129.184 37.64 127.808 36.968C126.432 36.296 125.248 35.304 124.256 33.992C123.264 32.68 122.768 30.968 122.768 28.856C122.768 25.72 123.904 23.272 126.176 21.512C128.448 19.72 131.408 18.824 135.056 18.824C138.768 18.824 141.76 19.72 144.032 21.512C146.304 23.272 147.52 25.736 147.68 28.904H138.8C138.736 27.816 138.336 26.968 137.6 26.36C136.864 25.72 135.92 25.4 134.768 25.4C133.776 25.4 132.976 25.672 132.368 26.216C131.76 26.728 131.456 27.48 131.456 28.472C131.456 29.56 131.968 30.408 132.992 31.016C134.016 31.624 135.616 32.28 137.792 32.984C139.968 33.72 141.728 34.424 143.072 35.096C144.448 35.768 145.632 36.744 146.624 38.024C147.616 39.304 148.112 40.952 148.112 42.968C148.112 44.888 147.616 46.632 146.624 48.2C145.664 49.768 144.256 51.016 142.4 51.944C140.544 52.872 138.352 53.336 135.824 53.336Z" fill="#9C9C94"/>
<g filter="url(#filter0_d_438_401)">
<path d="M17.04 21.6177V41.7777C17.04 43.7937 17.536 45.3457 18.528 46.4337C19.52 47.5217 20.976 48.0657 22.896 48.0657C24.816 48.0657 26.288 47.5217 27.312 46.4337C28.336 45.3457 28.848 43.7937 28.848 41.7777V21.6177H37.056V41.7297C37.056 44.7377 36.416 47.2817 35.136 49.3617C33.856 51.4417 32.128 53.0097 29.952 54.0657C27.808 55.1217 25.408 55.6497 22.752 55.6497C20.096 55.6497 17.712 55.1377 15.6 54.1137C13.52 53.0577 11.872 51.4897 10.656 49.4097C9.44 47.2977 8.832 44.7377 8.832 41.7297V21.6177H17.04ZM55.0118 55.6497C52.5478 55.6497 50.3398 55.2497 48.3878 54.4497C46.4358 53.6497 44.8678 52.4657 43.6838 50.8977C42.5318 49.3297 41.9238 47.4417 41.8598 45.2337H50.5958C50.7238 46.4817 51.1558 47.4417 51.8918 48.1137C52.6278 48.7537 53.5878 49.0737 54.7718 49.0737C55.9878 49.0737 56.9478 48.8017 57.6518 48.2577C58.3558 47.6817 58.7078 46.8977 58.7078 45.9057C58.7078 45.0737 58.4198 44.3857 57.8438 43.8417C57.2998 43.2977 56.6118 42.8497 55.7798 42.4977C54.9798 42.1457 53.8278 41.7457 52.3238 41.2977C50.1478 40.6257 48.3718 39.9537 46.9958 39.2817C45.6198 38.6097 44.4358 37.6177 43.4438 36.3057C42.4518 34.9937 41.9558 33.2817 41.9558 31.1697C41.9558 28.0337 43.0918 25.5857 45.3638 23.8257C47.6358 22.0337 50.5958 21.1377 54.2438 21.1377C57.9558 21.1377 60.9478 22.0337 63.2198 23.8257C65.4918 25.5857 66.7078 28.0497 66.8678 31.2177H57.9878C57.9238 30.1297 57.5238 29.2817 56.7878 28.6737C56.0518 28.0337 55.1078 27.7137 53.9557 27.7137C52.9638 27.7137 52.1638 27.9857 51.5558 28.5297C50.9478 29.0417 50.6438 29.7937 50.6438 30.7857C50.6438 31.8737 51.1558 32.7217 52.1797 33.3297C53.2038 33.9377 54.8038 34.5937 56.9798 35.2977C59.1558 36.0337 60.9158 36.7377 62.2598 37.4097C63.6358 38.0817 64.8198 39.0577 65.8118 40.3377C66.8038 41.6177 67.2998 43.2657 67.2998 45.2817C67.2998 47.2017 66.8038 48.9457 65.8118 50.5137C64.8518 52.0817 63.4438 53.3297 61.5878 54.2577C59.7318 55.1857 57.5398 55.6497 55.0118 55.6497ZM80.559 28.1937V35.0097H91.551V41.3457H80.559V48.7377H92.991V55.3137H72.351V21.6177H92.991V28.1937H80.559ZM115.504 55.3137L108.496 42.5937H106.528V55.3137H98.3198V21.6177H112.096C114.752 21.6177 117.008 22.0817 118.864 23.0097C120.752 23.9377 122.16 25.2177 123.088 26.8497C124.016 28.4497 124.48 30.2417 124.48 32.2257C124.48 34.4657 123.84 36.4657 122.56 38.2257C121.312 39.9857 119.456 41.2337 116.992 41.9697L124.768 55.3137H115.504ZM106.528 36.7857H111.616C113.12 36.7857 114.24 36.4177 114.976 35.6817C115.744 34.9457 116.128 33.9057 116.128 32.5617C116.128 31.2817 115.744 30.2737 114.976 29.5377C114.24 28.8017 113.12 28.4337 111.616 28.4337H106.528V36.7857ZM141.824 55.6497C139.36 55.6497 137.152 55.2497 135.2 54.4497C133.248 53.6497 131.68 52.4657 130.496 50.8977C129.344 49.3297 128.736 47.4417 128.672 45.2337H137.408C137.536 46.4817 137.968 47.4417 138.704 48.1137C139.44 48.7537 140.4 49.0737 141.584 49.0737C142.8 49.0737 143.76 48.8017 144.464 48.2577C145.168 47.6817 145.52 46.8977 145.52 45.9057C145.52 45.0737 145.232 44.3857 144.656 43.8417C144.112 43.2977 143.424 42.8497 142.592 42.4977C141.792 42.1457 140.64 41.7457 139.136 41.2977C136.96 40.6257 135.184 39.9537 133.808 39.2817C132.432 38.6097 131.248 37.6177 130.256 36.3057C129.264 34.9937 128.768 33.2817 128.768 31.1697C128.768 28.0337 129.904 25.5857 132.176 23.8257C134.448 22.0337 137.408 21.1377 141.056 21.1377C144.768 21.1377 147.76 22.0337 150.032 23.8257C152.304 25.5857 153.52 28.0497 153.68 31.2177H144.8C144.736 30.1297 144.336 29.2817 143.6 28.6737C142.864 28.0337 141.92 27.7137 140.768 27.7137C139.776 27.7137 138.976 27.9857 138.368 28.5297C137.76 29.0417 137.456 29.7937 137.456 30.7857C137.456 31.8737 137.968 32.7217 138.992 33.3297C140.016 33.9377 141.616 34.5937 143.792 35.2977C145.968 36.0337 147.728 36.7377 149.072 37.4097C150.448 38.0817 151.632 39.0577 152.624 40.3377C153.616 41.6177 154.112 43.2657 154.112 45.2817C154.112 47.2017 153.616 48.9457 152.624 50.5137C151.664 52.0817 150.256 53.3297 148.4 54.2577C146.544 55.1857 144.352 55.6497 141.824 55.6497Z" fill="#FEE146"/>
</g>
<defs>
<filter id="filter0_d_438_401" x="4.832" y="21.1377" width="153.28" height="42.512" filterUnits="userSpaceOnUse" color-interpolation-filters="sRGB">
<feFlood flood-opacity="0" result="BackgroundImageFix"/>
<feColorMatrix in="SourceAlpha" type="matrix" values="0 0 0 0 0 0 0 0 0 0 0 0 0 0 0 0 0 0 127 0" result="hardAlpha"/>
<feOffset dy="4"/>
<feGaussianBlur stdDeviation="2"/>
<feComposite in2="hardAlpha" operator="out"/>
<feColorMatrix type="matrix" values="0 0 0 0 0 0 0 0 0 0 0 0 0 0 0 0 0 0 0.25 0"/>
<feBlend mode="normal" in2="BackgroundImageFix" result="effect1_dropShadow_438_401"/>
<feBlend mode="normal" in="SourceGraphic" in2="effect1_dropShadow_438_401" result="shape"/>
</filter>
</defs>
</svg>
