<svg width="495" height="65" viewBox="0 0 495 65" fill="none" xmlns="http://www.w3.org/2000/svg">
<g filter="url(#filter0_d_442_544)">
<path d="M231.85 31.2C231.85 33.2333 231.383 35.1 230.45 36.8C229.517 38.4667 228.083 39.8167 226.15 40.85C224.217 41.8833 221.817 42.4 218.95 42.4H213.65V55H205.1V19.9H218.95C221.75 19.9 224.117 20.3833 226.05 21.35C227.983 22.3167 229.433 23.65 230.4 25.35C231.367 27.05 231.85 29 231.85 31.2ZM218.3 35.6C219.933 35.6 221.15 35.2167 221.95 34.45C222.75 33.6833 223.15 32.6 223.15 31.2C223.15 29.8 222.75 28.7167 221.95 27.95C221.15 27.1833 219.933 26.8 218.3 26.8H213.65V35.6H218.3ZM258.151 48.8H245.051L242.951 55H234.001L246.701 19.9H256.601L269.301 55H260.251L258.151 48.8ZM255.951 42.2L251.601 29.35L247.301 42.2H255.951ZM285.866 55.35C283.3 55.35 281 54.9333 278.966 54.1C276.933 53.2667 275.3 52.0333 274.066 50.4C272.866 48.7667 272.233 46.8 272.166 44.5H281.266C281.4 45.8 281.85 46.8 282.616 47.5C283.383 48.1667 284.383 48.5 285.616 48.5C286.883 48.5 287.883 48.2167 288.616 47.65C289.35 47.05 289.716 46.2333 289.716 45.2C289.716 44.3333 289.416 43.6167 288.816 43.05C288.25 42.4833 287.533 42.0167 286.666 41.65C285.833 41.2833 284.633 40.8667 283.066 40.4C280.8 39.7 278.95 39 277.516 38.3C276.083 37.6 274.85 36.5667 273.816 35.2C272.783 33.8333 272.266 32.05 272.266 29.85C272.266 26.5833 273.45 24.0333 275.816 22.2C278.183 20.3333 281.266 19.4 285.066 19.4C288.933 19.4 292.05 20.3333 294.416 22.2C296.783 24.0333 298.05 26.6 298.216 29.9H288.966C288.9 28.7667 288.483 27.8833 287.716 27.25C286.95 26.5833 285.966 26.25 284.766 26.25C283.733 26.25 282.9 26.5333 282.266 27.1C281.633 27.6333 281.316 28.4167 281.316 29.45C281.316 30.5833 281.85 31.4667 282.916 32.1C283.983 32.7333 285.65 33.4167 287.916 34.15C290.183 34.9167 292.016 35.65 293.416 36.35C294.85 37.05 296.083 38.0667 297.116 39.4C298.15 40.7333 298.666 42.45 298.666 44.55C298.666 46.55 298.15 48.3667 297.116 50C296.116 51.6333 294.65 52.9333 292.716 53.9C290.783 54.8667 288.5 55.35 285.866 55.35ZM316.628 55.35C314.061 55.35 311.761 54.9333 309.728 54.1C307.695 53.2667 306.061 52.0333 304.828 50.4C303.628 48.7667 302.995 46.8 302.928 44.5H312.028C312.161 45.8 312.611 46.8 313.378 47.5C314.145 48.1667 315.145 48.5 316.378 48.5C317.645 48.5 318.645 48.2167 319.378 47.65C320.111 47.05 320.478 46.2333 320.478 45.2C320.478 44.3333 320.178 43.6167 319.578 43.05C319.011 42.4833 318.295 42.0167 317.428 41.65C316.595 41.2833 315.395 40.8667 313.828 40.4C311.561 39.7 309.711 39 308.278 38.3C306.845 37.6 305.611 36.5667 304.578 35.2C303.545 33.8333 303.028 32.05 303.028 29.85C303.028 26.5833 304.211 24.0333 306.578 22.2C308.945 20.3333 312.028 19.4 315.828 19.4C319.695 19.4 322.811 20.3333 325.178 22.2C327.545 24.0333 328.811 26.6 328.978 29.9H319.728C319.661 28.7667 319.245 27.8833 318.478 27.25C317.711 26.5833 316.728 26.25 315.528 26.25C314.495 26.25 313.661 26.5333 313.028 27.1C312.395 27.6333 312.078 28.4167 312.078 29.45C312.078 30.5833 312.611 31.4667 313.678 32.1C314.745 32.7333 316.411 33.4167 318.678 34.15C320.945 34.9167 322.778 35.65 324.178 36.35C325.611 37.05 326.845 38.0667 327.878 39.4C328.911 40.7333 329.428 42.45 329.428 44.55C329.428 46.55 328.911 48.3667 327.878 50C326.878 51.6333 325.411 52.9333 323.478 53.9C321.545 54.8667 319.261 55.35 316.628 55.35ZM382.99 19.9L373.84 55H363.49L357.89 31.9L352.09 55H341.74L332.84 19.9H341.99L347.04 45.45L353.29 19.9H362.69L368.69 45.45L373.79 19.9H382.99ZM403.878 55.35C400.578 55.35 397.544 54.5833 394.778 53.05C392.044 51.5167 389.861 49.3833 388.228 46.65C386.628 43.8833 385.828 40.7833 385.828 37.35C385.828 33.9167 386.628 30.8333 388.228 28.1C389.861 25.3667 392.044 23.2333 394.778 21.7C397.544 20.1667 400.578 19.4 403.878 19.4C407.178 19.4 410.194 20.1667 412.928 21.7C415.694 23.2333 417.861 25.3667 419.428 28.1C421.028 30.8333 421.828 33.9167 421.828 37.35C421.828 40.7833 421.028 43.8833 419.428 46.65C417.828 49.3833 415.661 51.5167 412.928 53.05C410.194 54.5833 407.178 55.35 403.878 55.35ZM403.878 47.55C406.678 47.55 408.911 46.6167 410.578 44.75C412.278 42.8833 413.128 40.4167 413.128 37.35C413.128 34.25 412.278 31.7833 410.578 29.95C408.911 28.0833 406.678 27.15 403.878 27.15C401.044 27.15 398.778 28.0667 397.078 29.9C395.411 31.7333 394.578 34.2167 394.578 37.35C394.578 40.45 395.411 42.9333 397.078 44.8C398.778 46.6333 401.044 47.55 403.878 47.55ZM444.484 55L437.184 41.75H435.134V55H426.584V19.9H440.934C443.701 19.9 446.051 20.3833 447.984 21.35C449.951 22.3167 451.418 23.65 452.384 25.35C453.351 27.0167 453.834 28.8833 453.834 30.95C453.834 33.2833 453.168 35.3667 451.834 37.2C450.534 39.0333 448.601 40.3333 446.034 41.1L454.134 55H444.484ZM435.134 35.7H440.434C442.001 35.7 443.168 35.3167 443.934 34.55C444.734 33.7833 445.134 32.7 445.134 31.3C445.134 29.9667 444.734 28.9167 443.934 28.15C443.168 27.3833 442.001 27 440.434 27H435.134V35.7ZM472.352 19.9C476.052 19.9 479.285 20.6333 482.052 22.1C484.818 23.5667 486.952 25.6333 488.452 28.3C489.985 30.9333 490.752 33.9833 490.752 37.45C490.752 40.8833 489.985 43.9333 488.452 46.6C486.952 49.2667 484.802 51.3333 482.002 52.8C479.235 54.2667 476.018 55 472.352 55H459.202V19.9H472.352ZM471.802 47.6C475.035 47.6 477.552 46.7167 479.352 44.95C481.152 43.1833 482.052 40.6833 482.052 37.45C482.052 34.2167 481.152 31.7 479.352 29.9C477.552 28.1 475.035 27.2 471.802 27.2H467.752V47.6H471.802Z" fill="#FEE146"/>
</g>
<path d="M16.964 31.594L18.7123 32.5653L18.7173 32.5562L16.964 31.594ZM21.714 26.768L22.6945 28.5112L22.7017 28.5071L21.714 26.768ZM36.8 27.528L37.9913 25.9215V25.9215L36.8 27.528ZM41.322 34.368V36.368H43.9164L43.2562 33.859L41.322 34.368ZM34.178 34.368L32.373 35.2295L32.9164 36.368H34.178V34.368ZM31.898 31.822L30.8624 33.533L30.8722 33.5389L30.882 33.5447L31.898 31.822ZM23.728 33.038L25.2213 34.3684L23.728 33.038ZM23.728 44.21L22.2347 45.5404L23.728 44.21ZM31.898 45.426L30.882 43.7033L30.8722 43.7091L30.8624 43.715L31.898 45.426ZM34.178 42.88V40.88H32.9164L32.373 42.0185L34.178 42.88ZM41.322 42.88L43.2562 43.389L43.9164 40.88H41.322V42.88ZM36.8 49.72L37.9796 51.3351L37.9855 51.3308L37.9913 51.3265L36.8 49.72ZM21.714 50.48L20.7171 52.2138L20.7298 52.2212L20.7427 52.2283L21.714 50.48ZM16.964 45.654L18.7123 44.6827L16.964 45.654ZM17.254 38.624C17.254 36.2869 17.7568 34.2852 18.7123 32.5653L15.2157 30.6227C13.8912 33.0068 13.254 35.6918 13.254 38.624H17.254ZM18.7173 32.5562C19.6813 30.7996 20.9998 29.4644 22.6945 28.5112L20.7335 25.0248C18.3749 26.3516 16.5267 28.2337 15.2107 30.6318L18.7173 32.5562ZM22.7017 28.5071C24.4245 27.5287 26.3965 27.02 28.668 27.02V23.02C25.7715 23.02 23.1075 23.6766 20.7264 25.0289L22.7017 28.5071ZM28.668 27.02C31.4632 27.02 33.7421 27.7503 35.6087 29.1345L37.9913 25.9215C35.3485 23.9617 32.2062 23.02 28.668 23.02V27.02ZM35.6087 29.1345C37.4739 30.5177 38.7356 32.3984 39.3879 34.877L43.2562 33.859C42.3884 30.5616 40.6354 27.8823 37.9913 25.9215L35.6087 29.1345ZM41.322 32.368H34.178V36.368H41.322V32.368ZM35.983 33.5065C35.2933 32.0616 34.2714 30.8998 32.914 30.0993L30.882 33.5447C31.5006 33.9095 31.9987 34.4451 32.373 35.2295L35.983 33.5065ZM32.9336 30.111C31.627 29.3201 30.1596 28.948 28.592 28.948V32.948C29.507 32.948 30.2437 33.1585 30.8624 33.533L32.9336 30.111ZM28.592 28.948C26.0668 28.948 23.8855 29.8547 22.2347 31.7076L25.2213 34.3684C26.0532 33.4347 27.1145 32.948 28.592 32.948V28.948ZM22.2347 31.7076C20.5915 33.552 19.866 35.9296 19.866 38.624H23.866C23.866 36.6571 24.3819 35.3106 25.2213 34.3684L22.2347 31.7076ZM19.866 38.624C19.866 41.3184 20.5915 43.696 22.2347 45.5404L25.2213 42.8796C24.3819 41.9373 23.866 40.5909 23.866 38.624H19.866ZM22.2347 45.5404C23.8855 47.3933 26.0668 48.3 28.592 48.3V44.3C27.1145 44.3 26.0532 43.8133 25.2213 42.8796L22.2347 45.5404ZM28.592 48.3C30.1596 48.3 31.627 47.9279 32.9336 47.137L30.8624 43.715C30.2437 44.0895 29.507 44.3 28.592 44.3V48.3ZM32.914 47.1487C34.2714 46.3482 35.2933 45.1864 35.983 43.7415L32.373 42.0185C31.9987 42.8029 31.5006 43.3385 30.882 43.7033L32.914 47.1487ZM34.178 44.88H41.322V40.88H34.178V44.88ZM39.3879 42.371C38.7356 44.8496 37.4739 46.7303 35.6087 48.1135L37.9913 51.3265C40.6354 49.3657 42.3884 46.6864 43.2562 43.389L39.3879 42.371ZM35.6204 48.1049C33.7532 49.4686 31.47 50.19 28.668 50.19V54.19C32.1994 54.19 35.3375 53.2648 37.9796 51.3351L35.6204 48.1049ZM28.668 50.19C26.3888 50.19 24.411 49.6904 22.6853 48.7317L20.7427 52.2283C23.121 53.5496 25.7792 54.19 28.668 54.19V50.19ZM22.7109 48.7462C21.0007 47.7628 19.6766 46.4184 18.7123 44.6827L15.2157 46.6253C16.5314 48.9936 18.3739 50.8665 20.7171 52.2138L22.7109 48.7462ZM18.7123 44.6827C17.7568 42.9628 17.254 40.9611 17.254 38.624H13.254C13.254 41.5562 13.8912 44.2412 15.2157 46.6253L18.7123 44.6827ZM68.4053 25.324H70.4053V23.324H68.4053V25.324ZM68.4053 52V54H70.4053V52H68.4053ZM61.9073 52H59.9073V54H61.9073V52ZM61.9073 41.018H63.9073V39.018H61.9073V41.018ZM51.7993 41.018V39.018H49.7993V41.018H51.7993ZM51.7993 52V54H53.7993V52H51.7993ZM45.3013 52H43.3013V54H45.3013V52ZM45.3013 25.324V23.324H43.3013V25.324H45.3013ZM51.7993 25.324H53.7993V23.324H51.7993V25.324ZM51.7993 35.774H49.7993V37.774H51.7993V35.774ZM61.9073 35.774V37.774H63.9073V35.774H61.9073ZM61.9073 25.324V23.324H59.9073V25.324H61.9073ZM66.4053 25.324V52H70.4053V25.324H66.4053ZM68.4053 50H61.9073V54H68.4053V50ZM63.9073 52V41.018H59.9073V52H63.9073ZM61.9073 39.018H51.7993V43.018H61.9073V39.018ZM49.7993 41.018V52H53.7993V41.018H49.7993ZM51.7993 50H45.3013V54H51.7993V50ZM47.3013 52V25.324H43.3013V52H47.3013ZM45.3013 27.324H51.7993V23.324H45.3013V27.324ZM49.7993 25.324V35.774H53.7993V25.324H49.7993ZM51.7993 37.774H61.9073V33.774H51.7993V37.774ZM63.9073 35.774V25.324H59.9073V35.774H63.9073ZM61.9073 27.324H68.4053V23.324H61.9073V27.324ZM89.7022 47.288L91.5965 46.6464L91.1364 45.288H89.7022V47.288ZM79.7462 47.288V45.288H78.312L77.8519 46.6464L79.7462 47.288ZM78.1502 52V54H79.5844L80.0445 52.6416L78.1502 52ZM71.3482 52L69.4676 51.3195L68.4977 54H71.3482V52ZM81.0002 25.324V23.324H79.597L79.1196 24.6435L81.0002 25.324ZM88.5242 25.324L90.4049 24.6435L89.9275 23.324H88.5242V25.324ZM98.1762 52V54H101.027L100.057 51.3195L98.1762 52ZM91.2982 52L89.4039 52.6416L89.864 54H91.2982V52ZM88.0302 42.272V44.272H90.8188L89.9246 41.6307L88.0302 42.272ZM84.7242 32.506L86.6186 31.8647L84.7133 26.2362L82.8276 31.8713L84.7242 32.506ZM81.4562 42.272L79.5596 41.6373L78.678 44.272H81.4562V42.272ZM89.7022 45.288H79.7462V49.288H89.7022V45.288ZM77.8519 46.6464L76.2559 51.3584L80.0445 52.6416L81.6405 47.9296L77.8519 46.6464ZM78.1502 50H71.3482V54H78.1502V50ZM73.2289 52.6805L82.8809 26.0045L79.1196 24.6435L69.4676 51.3195L73.2289 52.6805ZM81.0002 27.324H88.5242V23.324H81.0002V27.324ZM86.6436 26.0045L96.2956 52.6805L100.057 51.3195L90.4049 24.6435L86.6436 26.0045ZM98.1762 50H91.2982V54H98.1762V50ZM93.1925 51.3584L91.5965 46.6464L87.8079 47.9296L89.4039 52.6416L93.1925 51.3584ZM89.9246 41.6307L86.6186 31.8647L82.8298 33.1473L86.1358 42.9133L89.9246 41.6307ZM82.8276 31.8713L79.5596 41.6373L83.3529 42.9067L86.6209 33.1407L82.8276 31.8713ZM81.4562 44.272H88.0302V40.272H81.4562V44.272ZM124.978 52V54H126.978V52H124.978ZM118.48 52L116.811 53.1023L117.404 54H118.48V52ZM107.612 35.546L109.281 34.4437L105.612 28.8892V35.546H107.612ZM107.612 52V54H109.612V52H107.612ZM101.114 52H99.1138V54H101.114V52ZM101.114 25.324V23.324H99.1138V25.324H101.114ZM107.612 25.324L109.283 24.2253L108.69 23.324H107.612V25.324ZM118.48 41.854L116.809 42.9527L120.48 48.5365V41.854H118.48ZM118.48 25.324V23.324H116.48V25.324H118.48ZM124.978 25.324H126.978V23.324H124.978V25.324ZM124.978 50H118.48V54H124.978V50ZM120.149 50.8977L109.281 34.4437L105.943 36.6483L116.811 53.1023L120.149 50.8977ZM105.612 35.546V52H109.612V35.546H105.612ZM107.612 50H101.114V54H107.612V50ZM103.114 52V25.324H99.1138V52H103.114ZM101.114 27.324H107.612V23.324H101.114V27.324ZM105.941 26.4227L116.809 42.9527L120.151 40.7553L109.283 24.2253L105.941 26.4227ZM120.48 41.854V25.324H116.48V41.854H120.48ZM118.48 27.324H124.978V23.324H118.48V27.324ZM122.978 25.324V52H126.978V25.324H122.978ZM147.396 33.76L145.638 34.7142L146.206 35.76H147.396V33.76ZM145.306 31.746L144.352 33.5037L144.381 33.5198L144.412 33.5349L145.306 31.746ZM137.098 33.114L138.566 34.4728L138.572 34.4661L138.578 34.4593L137.098 33.114ZM137.174 44.4L135.721 45.774L135.734 45.7876L135.747 45.8009L137.174 44.4ZM146.712 45.236L145.536 43.6185L145.527 43.625L145.518 43.6315L146.712 45.236ZM149.144 41.74L151.041 42.3725L151.919 39.74H149.144V41.74ZM140.898 41.74H138.898V43.74H140.898V41.74ZM140.898 36.952V34.952H138.898V36.952H140.898ZM155.034 36.952H157.034V34.952H155.034V36.952ZM155.034 42.994L156.951 43.5632L157.034 43.2846V42.994H155.034ZM152.564 47.516L151.03 46.2329L151.023 46.2412L151.016 46.2495L152.564 47.516ZM148.194 50.898L147.32 49.099L148.194 50.898ZM135.122 50.48L134.134 52.2191L134.147 52.2263L134.16 52.2333L135.122 50.48ZM130.296 45.654L128.548 46.6253L128.552 46.6335L128.557 46.6417L130.296 45.654ZM130.296 31.594L128.552 30.6155L128.548 30.6227L130.296 31.594ZM135.122 26.768L136.093 28.5163L136.102 28.5118L136.11 28.5071L135.122 26.768ZM150.208 27.338L149.051 28.9693L149.06 28.9756L150.208 27.338ZM154.578 33.76V35.76H157.163L156.514 33.2581L154.578 33.76ZM149.154 32.8058C148.475 31.555 147.475 30.5943 146.2 29.9571L144.412 33.5349C144.961 33.8097 145.355 34.1917 145.638 34.7142L149.154 32.8058ZM146.26 29.9883C145.026 29.3184 143.633 29.024 142.152 29.024V33.024C143.103 33.024 143.813 33.211 144.352 33.5037L146.26 29.9883ZM142.152 29.024C139.559 29.024 137.31 29.9072 135.618 31.7687L138.578 34.4593C139.419 33.5341 140.54 33.024 142.152 33.024V29.024ZM135.631 31.7552C133.945 33.5753 133.198 35.9397 133.198 38.624H137.198C137.198 36.6976 137.718 35.3887 138.566 34.4728L135.631 31.7552ZM133.198 38.624C133.198 41.4429 133.962 43.9134 135.721 45.774L138.627 43.026C137.752 42.0999 137.198 40.7197 137.198 38.624H133.198ZM135.747 45.8009C137.544 47.6323 139.94 48.452 142.684 48.452V44.452C140.766 44.452 139.489 43.9037 138.601 42.9991L135.747 45.8009ZM142.684 48.452C144.632 48.452 146.414 47.9509 147.906 46.8405L145.518 43.6315C144.832 44.1424 143.928 44.452 142.684 44.452V48.452ZM147.888 46.8535C149.393 45.7595 150.425 44.2216 151.041 42.3725L147.247 41.1075C146.85 42.2984 146.261 43.0912 145.536 43.6185L147.888 46.8535ZM149.144 39.74H140.898V43.74H149.144V39.74ZM142.898 41.74V36.952H138.898V41.74H142.898ZM140.898 38.952H155.034V34.952H140.898V38.952ZM153.034 36.952V42.994H157.034V36.952H153.034ZM153.117 42.4248C152.719 43.7656 152.033 45.0332 151.03 46.2329L154.098 48.7991C155.425 47.2121 156.387 45.4651 156.951 43.5632L153.117 42.4248ZM151.016 46.2495C150.076 47.398 148.858 48.3521 147.32 49.099L149.068 52.697C151.077 51.7213 152.772 50.4207 154.112 48.7825L151.016 46.2495ZM147.32 49.099C145.853 49.8117 144.156 50.19 142.19 50.19V54.19C144.682 54.19 146.989 53.707 149.068 52.697L147.32 49.099ZM142.19 50.19C139.853 50.19 137.835 49.6873 136.084 48.7267L134.16 52.2333C136.564 53.5527 139.257 54.19 142.19 54.19V50.19ZM136.11 48.7409C134.371 47.7537 133.022 46.4047 132.035 44.6664L128.557 46.6417C129.9 49.0073 131.769 50.8757 134.134 52.2191L136.11 48.7409ZM132.044 44.6827C131.089 42.9628 130.586 40.9611 130.586 38.624H126.586C126.586 41.5562 127.223 44.2412 128.548 46.6253L132.044 44.6827ZM130.586 38.624C130.586 36.2869 131.089 34.2852 132.044 32.5653L128.548 30.6227C127.223 33.0068 126.586 35.6918 126.586 38.624H130.586ZM132.04 32.5725C133.027 30.8134 134.37 29.4735 136.093 28.5163L134.151 25.0197C131.77 26.3425 129.896 28.2199 128.552 30.6155L132.04 32.5725ZM136.11 28.5071C137.827 27.532 139.822 27.02 142.152 27.02V23.02C139.212 23.02 136.521 23.6733 134.134 25.0289L136.11 28.5071ZM142.152 27.02C145.012 27.02 147.272 27.7076 149.051 28.9693L151.365 25.7067C148.787 23.8777 145.676 23.02 142.152 23.02V27.02ZM149.06 28.9756C150.854 30.2335 152.046 31.961 152.642 34.2619L156.514 33.2581C155.692 30.087 153.97 27.5331 151.356 25.7004L149.06 28.9756ZM154.578 31.76H147.396V35.76H154.578V31.76ZM165.131 30.53V28.53H163.131V30.53H165.131ZM165.131 35.926H163.131V37.926H165.131V35.926ZM173.833 35.926H175.833V33.926H173.833V35.926ZM173.833 40.942V42.942H175.833V40.942H173.833ZM165.131 40.942V38.942H163.131V40.942H165.131ZM165.131 46.794H163.131V48.794H165.131V46.794ZM174.973 46.794H176.973V44.794H174.973V46.794ZM174.973 52V54H176.973V52H174.973ZM158.633 52H156.633V54H158.633V52ZM158.633 25.324V23.324H156.633V25.324H158.633ZM174.973 25.324H176.973V23.324H174.973V25.324ZM174.973 30.53V32.53H176.973V30.53H174.973ZM163.131 30.53V35.926H167.131V30.53H163.131ZM165.131 37.926H173.833V33.926H165.131V37.926ZM171.833 35.926V40.942H175.833V35.926H171.833ZM173.833 38.942H165.131V42.942H173.833V38.942ZM163.131 40.942V46.794H167.131V40.942H163.131ZM165.131 48.794H174.973V44.794H165.131V48.794ZM172.973 46.794V52H176.973V46.794H172.973ZM174.973 50H158.633V54H174.973V50ZM160.633 52V25.324H156.633V52H160.633ZM158.633 27.324H174.973V23.324H158.633V27.324ZM172.973 25.324V30.53H176.973V25.324H172.973ZM174.973 28.53H165.131V32.53H174.973V28.53Z" fill="#FCA162"/>
<defs>
<filter id="filter0_d_442_544" x="201.1" y="19.4" width="293.652" height="43.95" filterUnits="userSpaceOnUse" color-interpolation-filters="sRGB">
<feFlood flood-opacity="0" result="BackgroundImageFix"/>
<feColorMatrix in="SourceAlpha" type="matrix" values="0 0 0 0 0 0 0 0 0 0 0 0 0 0 0 0 0 0 127 0" result="hardAlpha"/>
<feOffset dy="4"/>
<feGaussianBlur stdDeviation="2"/>
<feComposite in2="hardAlpha" operator="out"/>
<feColorMatrix type="matrix" values="0 0 0 0 0 0 0 0 0 0 0 0 0 0 0 0 0 0 0.25 0"/>
<feBlend mode="normal" in2="BackgroundImageFix" result="effect1_dropShadow_442_544"/>
<feBlend mode="normal" in="SourceGraphic" in2="effect1_dropShadow_442_544" result="shape"/>
</filter>
</defs>
</svg>
